<svg width="99" height="68" viewBox="0 0 99 68" fill="none" xmlns="http://www.w3.org/2000/svg">
<path d="M63.4091 0.000851316L63.3147 0.0955588L63.535 0.000851316H63.4091ZM86.6329 8.61923C75.5559 0.505958 65.2343 0.127128 63.2832 0.127128L62.0245 1.35833C75.9336 5.33604 82.7937 11.5236 82.9825 11.713C62.4965 1.57931 40.3427 1.01107 20.0769 8.99806C16.993 10.324 15.1678 11.2079 15.0734 11.271C15.2937 11.0501 22.1224 4.48367 36.9441 0.916357L36.0315 0.000851316C36.0315 0.000851316 24.6399 -0.441117 12.3042 8.5561C12.3042 8.5561 0 29.739 0 55.8467C0 55.8467 6.82867 67.5589 25.521 68.0008C25.521 68.0008 28.2587 64.402 31.028 61.245C20.6748 58.1513 16.5525 51.9953 16.4266 51.8059L19.9511 53.6053C30.2098 57.804 41.0979 63.076 60.4511 59.9191C64.542 59.0036 68.6329 58.1197 72.7238 56.3202C75.3986 54.9628 78.6713 53.6369 82.2588 51.3639C82.1329 51.5533 78.0105 57.7093 67.2168 60.8031C69.4825 63.9284 72.6294 67.5273 72.6294 67.5273C91.3532 67.1169 98.6224 55.4047 99.0315 55.9098C99 29.8337 86.6329 8.61923 86.6329 8.61923ZM33.7343 47.7334C28.9511 47.7334 25.0804 43.6926 25.0804 38.7362C25.0804 33.7483 28.9511 29.739 33.7343 29.739L33.7657 29.7074C38.549 29.7074 42.3881 33.7483 42.3881 38.7047C42.3881 43.6926 38.5175 47.7334 33.7343 47.7334ZM64.7308 47.7334C59.9476 47.7334 56.0769 43.6926 56.0769 38.7362C56.0769 33.7483 59.979 29.739 64.7308 29.739V29.7074C69.514 29.7074 73.3846 33.7483 73.3846 38.7047C73.4161 43.6926 69.514 47.7334 64.7308 47.7334Z" fill="#FFF5D3"/>
</svg>
