<svg width="34" height="10" viewBox="0 0 34 10" fill="none" xmlns="http://www.w3.org/2000/svg">
<g clip-path="url(#clip0)">
<path d="M34.0001 4.99997C34.0001 5.31643 33.8798 5.63289 33.6392 5.82276L29.6693 9.68352C29.2482 10.1266 28.5865 10.0633 28.1655 9.62023C27.7444 9.17719 27.8046 8.48099 28.2256 8.03795L31.3535 4.99997L28.2256 1.962C27.8046 1.51896 27.7444 0.82276 28.1655 0.379722C28.5865 -0.0633164 29.2482 -0.126608 29.6693 0.31643L33.6392 4.17719C33.8798 4.36706 34.0001 4.68352 34.0001 4.99997Z" fill="#FFBB1C"/>
<path d="M32.4361 4.99992C32.4361 5.63283 31.9549 6.13916 31.3534 6.13916L1.08271 6.13916C0.481203 6.13916 -2.21324e-08 5.63283 -4.97978e-08 4.99992C-7.74632e-08 4.36701 0.481203 3.86068 1.08271 3.86068L31.3534 3.86068C31.9549 3.86068 32.4361 4.36701 32.4361 4.99992Z" fill="#FFBB1C"/>
</g>
<defs>
<clipPath id="clip0">
<rect width="10" height="34" fill="white" transform="translate(0 10) rotate(-90)"/>
</clipPath>
</defs>
</svg>
